<?xml version="1.0" standalone="no"?><svg xmlns="http://www.w3.org/2000/svg" viewBox="0 0 1440 320"><path fill="#b6afad" fill-opacity="1" d="M0,64L0,64L48,64L48,0L96,0L96,224L144,224L144,192L192,192L192,192L240,192L240,32L288,32L288,192L336,192L336,192L384,192L384,64L432,64L432,160L480,160L480,32L528,32L528,192L576,192L576,64L624,64L624,256L672,256L672,160L720,160L720,160L768,160L768,256L816,256L816,32L864,32L864,32L912,32L912,288L960,288L960,32L1008,32L1008,256L1056,256L1056,0L1104,0L1104,256L1152,256L1152,160L1200,160L1200,96L1248,96L1248,288L1296,288L1296,0L1344,0L1344,224L1392,224L1392,320L1440,320L1440,320L1392,320L1392,320L1344,320L1344,320L1296,320L1296,320L1248,320L1248,320L1200,320L1200,320L1152,320L1152,320L1104,320L1104,320L1056,320L1056,320L1008,320L1008,320L960,320L960,320L912,320L912,320L864,320L864,320L816,320L816,320L768,320L768,320L720,320L720,320L672,320L672,320L624,320L624,320L576,320L576,320L528,320L528,320L480,320L480,320L432,320L432,320L384,320L384,320L336,320L336,320L288,320L288,320L240,320L240,320L192,320L192,320L144,320L144,320L96,320L96,320L48,320L48,320L0,320L0,320Z"></path></svg>